<svg id="Layer_1" enable-background="new 0 0 512.074 512.074" height="512" viewBox="0 0 512.074 512.074" width="512" xmlns="http://www.w3.org/2000/svg"><g><g><path d="m158.537 512.074c-25.143 0-66.152-31.716-95.64-63.148-18.9-20.146-62.86-72.35-62.86-121.868 0-49.931 40.622-90.552 90.552-90.552 17.297 0 34.118 4.898 48.643 14.165 7.217 4.604 13.706 10.174 19.305 16.526 5.599-6.352 12.088-11.922 19.305-16.526 14.525-9.266 31.346-14.165 48.643-14.165 49.931 0 90.552 40.622 90.552 90.552 0 51.941-39.478 100.567-63.011 124.929-28.889 29.909-69.62 60.087-95.489 60.087z" fill="#ff415b"/></g><g><path d="m408.037 182.304c-23.833 0-57.054-34.124-63.472-40.964-15.136-16.134-40.528-47.914-40.528-79.481 0-34.109 27.75-61.859 61.858-61.859 16.038 0 30.928 6.024 42.142 16.492 11.214-10.468 26.105-16.492 42.142-16.492 34.109 0 61.858 27.75 61.858 61.858 0 34.217-25.487 65.712-40.679 81.44-17.38 17.994-44.393 39.006-63.321 39.006zm.219-29.991c.001 0 .001 0 0 0z" fill="#f9bbde"/></g><g><path d="m80.008 211.958c-.834 0-1.679-.07-2.529-.214-8.167-1.387-13.664-9.132-12.277-17.299 12.987-76.479 82.111-137.305 172.007-151.36 8.183-1.276 15.857 4.318 17.137 12.503s-4.318 15.857-12.503 17.137c-77.139 12.06-136.24 62.994-147.065 126.743-1.242 7.316-7.589 12.49-14.77 12.49z" fill="#fdbf00"/></g><g><path d="m348.774 388.54c-6.302 0-12.168-4.002-14.246-10.314-2.59-7.869 1.689-16.348 9.558-18.938 69.83-22.985 114.95-77.63 114.95-139.214 0-8.182-.83-16.424-2.466-24.498-1.646-8.119 3.602-16.035 11.721-17.681 8.117-1.645 16.035 3.602 17.681 11.721 2.033 10.031 3.064 20.278 3.064 30.458 0 36.729-13.023 72.098-37.663 102.284-24.24 29.698-58.096 52.322-97.908 65.426-1.555.512-3.137.756-4.691.756z" fill="#ff8856"/></g><path d="m226.485 236.505c-17.297 0-34.118 4.898-48.643 14.165-7.217 4.604-13.706 10.174-19.305 16.526-.016-.018-.032-.035-.048-.052v244.929c.016 0 .032.002.048.002 25.869 0 66.6-30.179 95.489-60.087 23.533-24.362 63.011-72.988 63.011-124.929 0-49.932-40.621-90.554-90.552-90.554z" fill="#e50058"/><path d="m450.179 0c-15.934 0-30.733 5.952-41.922 16.297v166c18.917-.16 45.787-21.073 63.101-38.998 15.192-15.728 40.679-47.223 40.679-81.44 0-34.109-27.749-61.859-61.858-61.859z" fill="#fe7cb8"/></g></svg>